<svg xmlns="http://www.w3.org/2000/svg" viewBox="0 0 256 255.08"><defs><style>.hydro-element{fill:#6cc4c7;}</style></defs><g id="hydro-element-svg"><path id="outer-right" class="hydro-element" d="M53.43,223.43c2,1,3.31,1.68,4.62,2.38a145.39,145.39,0,0,0,71.15,17.61c31-.3,57.78-21.91,65.42-52,9.16-36.14-13.08-77.45-56.52-84.44a66.15,66.15,0,0,0-30.92,2.41C95.25,113.13,87.86,106.6,85,99c-3.18-8.43.56-17.39,9.09-21.31A79.12,79.12,0,0,1,121.17,71c41.42-3.23,80.05,23.18,92.29,63,12.92,41.41-8.18,85.75-46,105.4C244.58,211.18,253.8,96.6,182.3,56.24c-19.15-12.48-40.4-17-62.86-15.18C93.13,43.2,70.87,54.36,52.72,73.53a116,116,0,0,0-7.62,9.58c-4.36,5.68-10.25,7.53-17,6.16S16,84.7,13.86,77.61c-1.37-4.48-.2-8.69,1.8-12.51a113,113,0,0,1,25-31.48A129.63,129.63,0,0,1,112.19,1c49.3-6.26,99.42,17.15,125.22,61.43,49,74.95-4.82,182.61-93.16,191.49A125,125,0,0,1,85,247.65C74,243.79,58.83,232.28,53.43,223.43Z"/><path id="inner-center" class="hydro-element" d="M165.91,212.11c-6.42,10.72-15.68,18-27.81,20.95a45.73,45.73,0,0,1-56-38.06c-4.17-29.65,20.51-50.45,41.69-51.37,16.32-.71,29.92,4.2,39.68,17.38,22.18,25.48-11.95,60.45-26.05,22.78-4.07-11.36-15.6-15.22-26.2-9.24-21.34,12-15.74,37.72.13,47.78,14.5,9.18,29,7.78,43-1.17C158.41,218.53,162.05,215.15,165.91,212.11Z"/><circle id="outer-left-small" class="hydro-element" cx="40.41" cy="185.75" r="12.12"/><circle id="outer-left-big" class="hydro-element" cx="17.51" cy="129.18" r="17.51"/></g></svg>