<svg xmlns="http://www.w3.org/2000/svg" viewBox="0 0 14 10.365"><g id="fa831e2c-a9e7-427a-8774-45e789ca1186" data-name="Layer 2"><g id="b9861827-b1f5-4814-9006-649571b122af" data-name="Base Stats"><g id="a57b60e8-a593-40d7-b098-14537f42fba1" data-name="Max Stamina"><path d="M13.924,6.541c-.152.207-1.292.3-1.292.3L9.77,6.948V8.564c0,.981-1.387,1.8-2.77,1.8s-2.77-.82-2.77-1.8V6.948L1.368,6.843s-1.14-.095-1.292-.3c-.239-.323.145-1.524.331-2.154.326-.865,1.284-3.21,1.885-3.119,1.115.17-.673,3.894.1,3.814A21.17,21.17,0,0,1,7,5a21.17,21.17,0,0,1,4.6.079c.777.08-1.011-3.644.1-3.814.6-.091,1.559,2.254,1.885,3.119C13.779,5.017,14.163,6.218,13.924,6.541ZM4.553,2.421a2.456,2.456,0,0,0,4.911,0A2.456,2.456,0,0,0,4.553,2.421Z" fill="#fff"/></g></g></g></svg>