<svg xmlns="http://www.w3.org/2000/svg" viewBox="0 0 14 13.977"><g id="ea6b6783-de96-4345-a5a3-a0b5074fc907" data-name="Layer 2"><g id="a9b35e3f-1928-4e7b-b9db-7461603fec48" data-name="Base Stats"><g id="bef4bb19-8a76-4fd5-8853-b702e6b65b86" data-name="ATK"><path d="M7.78,1.621,9.423,3.264l1.928-1.927L11.326.219A.228.228,0,0,1,11.554,0h2.2a.228.228,0,0,1,.228.228c-.121,2.661.556,2.457-1.337,2.4L10.712,4.553,12.356,6.2a.228.228,0,0,1,0,.322c-1.167,1.208-.775.907-1.892-.106L3.313,13.564A.457.457,0,0,1,3,13.7a21.32,21.32,0,0,1-2.954.239,21.172,21.172,0,0,1,.238-2.954.451.451,0,0,1,.134-.318L7.564,3.513l-.838-.838a.229.229,0,0,1,0-.323l.732-.731A.228.228,0,0,1,7.78,1.621Z" fill="#fff"/></g></g></g></svg>