<svg xmlns="http://www.w3.org/2000/svg" viewBox="0 0 12.883 14"><g id="a4d1c39c-e1d1-4512-aee4-cc6eec611f92" data-name="Layer 2"><g id="acbb3c38-b55b-474f-8804-8a2bc7a42c7b" data-name="Base Stats"><g id="ade18045-9cfb-442c-a029-8a9518e39bd2" data-name="DEF"><path d="M12.883.726a.291.291,0,0,0-.175-.268C12.3.286,10.944,0,6.442,0S.584.286.176.458A.291.291,0,0,0,0,.727v7.44a.868.868,0,0,0,.125.453c1.579,2.6,5.347,4.855,6.161,5.339a.292.292,0,0,0,.3,0c.789-.482,4.559-2.688,6.168-5.335a.868.868,0,0,0,.127-.455ZM6.441,11.968C6.5,11.981,2.882,9.951,1.617,7.6V1.565s0-.452,4.824-.452Z" fill="#fff"/></g></g></g></svg>