<svg xmlns="http://www.w3.org/2000/svg" viewBox="0 0 11.104 14"><g id="fdb91954-1536-4bd9-a499-a394d6446f41" data-name="Layer 2"><g id="b57c3854-be43-48b4-bfe4-0878faa8ac75" data-name="Base Stats"><g id="a275aa02-c841-4ee1-9857-ac6780bb73b0" data-name="Max HP"><path d="M2.052,7.654A.978.978,0,0,1,2.5,7.083c1.511-.85,3.586,2.117,6.544.548C10.971,13.714.151,13.878,2.052,7.654ZM5.552,14C2.177,14-1.2,11.579.416,6.74A18.543,18.543,0,0,1,5.121.213.748.748,0,0,1,5.552,0a.751.751,0,0,1,.431.212A18.543,18.543,0,0,1,10.688,6.74C12.3,11.579,8.927,14,5.552,14Zm.22-12.19a.639.639,0,0,0-.22-.075h0a.649.649,0,0,0-.221.075c-1.71,1.324-4.08,5.282-3.941,7.4a4.019,4.019,0,0,0,4.162,3.543h0A4.019,4.019,0,0,0,9.714,9.215C9.853,7.092,7.483,3.134,5.772,1.81Zm.762,6.22A12.566,12.566,0,0,1,8.107,6.521c.569-.413.94,1.11.94,1.11A3.731,3.731,0,0,1,6.534,8.03Z" fill="#fff"/></g></g></g></svg>