<svg xmlns="http://www.w3.org/2000/svg" viewBox="0 0 14 13.326"><g id="edbc4993-ae76-4359-8db5-c33ec5b4142b" data-name="Layer 2"><g id="bd2e750f-ea2a-4349-8823-b9f1cf1098fa" data-name="Artifacts"><g id="e7d04063-ea92-40af-b921-991b4e1cbd09" data-name="Flower"><path d="M11.279,4.705a2.554,2.554,0,0,0-1.6.9C11.215,3.854,12.708.454,9.711.3c-.015-.115-.2-.387-.4-.276A5.942,5.942,0,0,0,7.2,4.742C6.705,2.18,4.078.459,3.016.769c-.207.324-.056.607-.261.793-.18.163-.58-.016-.619.249-.324,1.729.945,3.632,2.758,4.532C3.113,6.057.165,6.349,0,8.491,0,9.43,1.269,9.868,3.191,9.868A3.541,3.541,0,0,0,6.319,8.4c-2.541,2.727-.544,3.278,2.192,1.78,1.073-.621.8-1.4.027-2.295,1.395.853,3.755-.174,3.877-1.72C12.414,5.533,12.142,4.718,11.279,4.705ZM7.521,6.213a.5.5,0,0,1-.441.5l-.1.637L6.9,6.694A.5.5,0,0,1,6.538,6.1l-.467-.567.557.377a.5.5,0,0,1,.706-.086l.459-.381-.356.492A.5.5,0,0,1,7.521,6.213ZM14,8.089c-.519.249-.77,1.7-1.586,2.337a3.966,3.966,0,0,1-2.678.5,3.463,3.463,0,0,1-1.881,2.393.041.041,0,0,1-.05-.064,4.294,4.294,0,0,0,1-3.174A1.125,1.125,0,0,0,8.956,8.3c.344.065.828,1.348.876,2.125,0,0,1.857-1.178,2.355-1.37A6.666,6.666,0,0,0,9.877,10.3a5.933,5.933,0,0,1,1.269-1.5C11.757,8.271,13.548,8.252,14,8.089Z" fill="#fff"/></g></g></g></svg>