<svg xmlns="http://www.w3.org/2000/svg" viewBox="0 0 14 13.864"><g id="f97be4ea-1f69-45fd-8c14-3b104892f246" data-name="Layer 2"><g id="af8b1417-d441-4c29-8f00-b503a2fdf9a3" data-name="Artifacts"><g id="b5f9ec32-79fe-4489-9d9a-a2161243e95a" data-name="Goblet"><path d="M9.546,8.637c4.121-2.3,4.121-3.555,4.12-6.894H.428c0,3.339,0,4.59,4.12,6.894,0,1.75,1.739,1.28,1.739,2.187.076.765-.192,1.207-.567,1.275-1.21.167-3.368.939-3.383,1.765h9.42c-.015-.826-2.173-1.6-3.383-1.765-.374-.068-.644-.509-.567-1.275C7.807,9.917,9.546,10.387,9.546,8.637ZM7.461,5.723,7.113,7.116a.066.066,0,0,1-.066.052.066.066,0,0,1-.066-.052L6.633,5.723a.941.941,0,0,0-.757-.7L4.631,4.817a.068.068,0,0,1,0-.135l1.245-.207a.939.939,0,0,0,.757-.7l.348-1.393a.066.066,0,0,1,.066-.051.067.067,0,0,1,.066.051l.348,1.393a.939.939,0,0,0,.757.7l1.245.207a.068.068,0,0,1,0,.135l-1.245.207A.941.941,0,0,0,7.461,5.723Zm5.881-4.408H.658A.657.657,0,0,1,0,.658H0A.657.657,0,0,1,.658,0H13.342A.657.657,0,0,1,14,.658h0A.657.657,0,0,1,13.342,1.315Z" fill="#fff"/></g></g></g></svg>