<svg xmlns="http://www.w3.org/2000/svg" viewBox="0 0 14 11.588"><g id="e3f554c1-ce6c-485a-bd5a-a11fae6e4d54" data-name="Layer 2"><g id="a5714ac7-7b8f-4604-a7f0-a0a903d50e2c" data-name="Artifacts"><g id="b812f736-f22d-44bf-a40d-96d3fcf3e6bb" data-name="Circlet"><path d="M12.793,3.842l.269.269L10.5,5.93,7.269,2.158l.809-.809L7,0,5.922,1.349l.809.809L3.5,5.93.938,4.111l.269-.269L0,2.965,2.958,9.972,7,11.588l4.042-1.616L14,2.965ZM8.732,7.864l-.892.149a.673.673,0,0,0-.543.5l-.25,1a.048.048,0,0,1-.094,0l-.25-1a.673.673,0,0,0-.543-.5l-.892-.149a.049.049,0,0,1,0-.1l.892-.149a.673.673,0,0,0,.543-.5l.25-1a.048.048,0,0,1,.094,0l.25,1a.673.673,0,0,0,.543.5l.892.149A.049.049,0,0,1,8.732,7.864Z" fill="#fff"/></g></g></g></svg>