<svg xmlns="http://www.w3.org/2000/svg" viewBox="0 0 12.933 14"><g id="aa6f7a04-0a8b-433c-9d3a-4f63013f4051" data-name="Layer 2"><g id="e197174d-f1f2-418e-9cae-89fa5ebb78d9" data-name="Artifacts"><g id="a3604031-a7b8-4f16-b183-d5e6247b0aa3" data-name="Plume"><path d="M11.809,0a4.52,4.52,0,0,0-1,.186,4.469,4.469,0,0,0-1.479.6c-.236.14-.241.324-.312.274a.717.717,0,0,0-.467-.033C5.117,3.737,5.04,3.893,3.285,6.494,3.171,6.54,3,6.384,3,6.384c-.059.546-.215.546-.526,1.168A2.75,2.75,0,0,0,2.1,9.588a2.49,2.49,0,0,1-.723-.245l.467.39a2.681,2.681,0,0,1-.934.078l.623.467s-.39.389-.546.389l.519.074A18.034,18.034,0,0,0,0,13.948.04.04,0,0,0,.045,14l.593-.3a.038.038,0,0,0,.02-.025,5.139,5.139,0,0,1,1.722-2.7l.479.549a1.881,1.881,0,0,1-.155-.779l.856.156c-.389-.39-.35-.56-.35-.56a4.067,4.067,0,0,0,1.6-.034,8.175,8.175,0,0,0,1.705-.865c.084-.04-.146-.082-.066-.124s.329-.095.413-.145A20.31,20.31,0,0,0,9.415,7.147a11.77,11.77,0,0,0,2.367-2.7c.043-.074-.36-.2-.526-.231.177.021.616.121.654.048a6.256,6.256,0,0,0,.86-2.34C12.826,1.245,13.449-.079,11.809,0ZM2.548,9.577C4.5,5.372,10.1,1.946,10.1,1.946,11.87.561,6.141,4.384,2.548,9.655Z" fill="#fff"/></g></g></g></svg>