<svg xmlns="http://www.w3.org/2000/svg" viewBox="0 0 9.822 14"><g id="ac0e9394-30be-4802-9b96-28cffbce2d90" data-name="Layer 2"><g id="fca1eb79-25f9-474c-b78d-1ecd9481c230" data-name="Artifacts"><g id="a2d9711c-ec8e-4259-9af2-11283373e0ce" data-name="Sands"><path d="M9.606,12.708H8.788v-.944c0-3.536-3.274-3.709-3.274-4.915V6.778a.855.855,0,0,1,.392-.72c.868-.56,2.773-1.311,2.877-3.895a.216.216,0,0,0-.215-.225H1.254a.217.217,0,0,0-.216.225c.1,2.584,2.009,3.335,2.877,3.9a.856.856,0,0,1,.393.72v.071c0,1.206-3.274,1.379-3.274,4.915v.944H.215A.215.215,0,0,0,0,12.923v.862A.215.215,0,0,0,.215,14H9.606a.216.216,0,0,0,.216-.215v-.862A.216.216,0,0,0,9.606,12.708Zm-4.695,0h-3.1c0-2.757,2.757-2.154,2.757-3.274V5.988S2.929,5.04,2.929,4.351H6.892c0,.689-1.637,1.637-1.637,1.637V9.434c0,1.12,2.757.517,2.757,3.274ZM9.822.215v.862a.216.216,0,0,1-.216.215H.215A.215.215,0,0,1,0,1.077V.215A.215.215,0,0,1,.215,0H9.606A.216.216,0,0,1,9.822.215Z" fill="#fff"/></g></g></g></svg>