<svg xmlns="http://www.w3.org/2000/svg" viewBox="0 0 112 112"><g id="ec25e469-16b0-4193-b6b0-6103b446bf75" data-name="Grid"><rect x="48" y="16" width="16" height="16" fill="#f0f"/><rect x="16" y="16" width="16" height="16" fill="#f0f"/><rect x="48" y="48" width="16" height="16" fill="#f0f"/><rect x="48" y="80" width="16" height="16" fill="#f0f"/><rect x="80" y="80" width="16" height="16" fill="#f0f"/><rect x="16" y="80" width="16" height="16" fill="#f0f"/><rect x="80" y="16" width="16" height="16" fill="#f0f"/><rect x="80" y="48" width="16" height="16" fill="#f0f"/><rect x="16" y="48" width="16" height="16" fill="#f0f"/></g><g id="b990632a-3cb4-426a-93bb-09096eb48269" data-name="Elements"><g id="a0f8ecf4-c65f-400f-8cdd-4746d294b7ea" data-name="Ameno"><path d="M17.2,21.906c.764,1.2,1.813,2.474,3.362,2.433,1.025-.066,2.374.225,2.679,1.36.313.865-.825,1.981-1.513,1.124-.108-.187-.039-.3.173-.326,1,.021,1.348-1.12.4-1.513-.813-.1-1.548.527-2.329.707C17.791,26.319,16.476,23.728,17.2,21.906Zm9.912,2.429c-1.056-.075-2.449.563-2.375,1.786a.972.972,0,0,0,1.1.983c.316.013.724-.545.294-.612-1.621,0-1.022-2.1.346-1.4a5.222,5.222,0,0,0,2.343.687c1.8-.177,2.572-2.3,1.989-3.859C29.938,23.224,28.852,24.517,27.112,24.335Zm-2.42-.772a7.571,7.571,0,0,0,2.226-.861,3.067,3.067,0,0,0-.632-5.612A5.143,5.143,0,0,1,24.692,23.563Zm-1.343-.014a5.071,5.071,0,0,1-1.615-6.477,3.075,3.075,0,0,0-1.122,5.287,7.944,7.944,0,0,0,2.7,1.235Zm5.342-.089c-1.143.656-2.594.363-3.651,1.217a1.557,1.557,0,0,0,.07,2.768c.234.1.462.206.689.014.223-.168.4-.162.721-.012a9.09,9.09,0,0,0-2.513,3.481,9.222,9.222,0,0,0-2.523-3.477.605.605,0,0,1,.726,0c.6.347,1.443-.4,1.555-1,.247-1.188-.936-2.112-1.982-2.337-.512-.121-1.038-.182-1.55-.3-2.367-.481-2.723-2.88-1.564-4.713.668,4.9,4,3.555,5.332,6.26,1.321-2.671,4.678-1.382,5.345-6.261C30.157,20.52,30.4,22.628,28.691,23.46Zm-4.12,5.191L24,28.274l-.572.385.58.971ZM24,27.138a1.592,1.592,0,0,1-1,.911.924.924,0,0,0,.991-.273c.426.328.794.418,1.046.255A1.557,1.557,0,0,1,24,27.138Z" fill="#fff"/></g><g id="eaff7646-d5e0-42a8-8dcf-00f9bfce62fe" data-name="Cryo"><path d="M49.957,20.52A19.85,19.85,0,0,1,51.868,23.8,6.152,6.152,0,0,0,52,23.172a6.476,6.476,0,0,1,3.461.524,6.479,6.479,0,0,1-2.184-2.736,6.308,6.308,0,0,0,.477-.423A19.8,19.8,0,0,1,49.957,20.52Zm4.411,2.547a7.473,7.473,0,0,0-2.4-.573,3.548,3.548,0,0,0-.2-.933h0a3.562,3.562,0,0,0,.91-.289A7.478,7.478,0,0,0,54.368,23.067ZM49.957,27.48A19.85,19.85,0,0,0,51.868,24.2a6.152,6.152,0,0,1,.128.624,6.476,6.476,0,0,0,3.461-.524,6.479,6.479,0,0,0-2.184,2.736,6.308,6.308,0,0,1,.477.423A19.8,19.8,0,0,0,49.957,27.48Zm4.411-2.547a7.473,7.473,0,0,1-2.4.573,3.548,3.548,0,0,1-.2.933h0a3.562,3.562,0,0,1,.91.289A7.478,7.478,0,0,1,54.368,24.933ZM56,31a19.768,19.768,0,0,0-1.882-3.293,6.161,6.161,0,0,1,.6.2A6.478,6.478,0,0,0,56,24.649a6.478,6.478,0,0,0,1.277,3.259,6.161,6.161,0,0,1,.6-.2A19.768,19.768,0,0,0,56,31Zm0-5.094a7.48,7.48,0,0,1-.706,2.368,3.561,3.561,0,0,1,.706.643h0a3.561,3.561,0,0,1,.706-.643A7.48,7.48,0,0,1,56,25.906Zm6.043,1.574A19.85,19.85,0,0,1,60.132,24.2a6.152,6.152,0,0,0-.128.624,6.476,6.476,0,0,1-3.461-.524,6.479,6.479,0,0,1,2.184,2.736,6.308,6.308,0,0,0-.477.423A19.8,19.8,0,0,1,62.043,27.48Zm-4.411-2.547a7.473,7.473,0,0,0,2.4.573,3.548,3.548,0,0,0,.2.933h0a3.562,3.562,0,0,0-.91.289A7.478,7.478,0,0,0,57.632,24.933Zm4.411-4.413A19.85,19.85,0,0,0,60.132,23.8,6.152,6.152,0,0,1,60,23.172a6.476,6.476,0,0,0-3.461.524,6.479,6.479,0,0,0,2.184-2.736,6.308,6.308,0,0,1-.477-.423A19.8,19.8,0,0,0,62.043,20.52Zm-4.411,2.547a7.473,7.473,0,0,1,2.4-.573,3.548,3.548,0,0,1,.2-.933h0a3.562,3.562,0,0,1-.91-.289A7.478,7.478,0,0,1,57.632,23.067ZM56,17a19.768,19.768,0,0,1-1.882,3.293,6.161,6.161,0,0,0,.6-.2A6.478,6.478,0,0,1,56,23.351a6.478,6.478,0,0,1,1.277-3.259,6.161,6.161,0,0,0,.6.2A19.768,19.768,0,0,1,56,17Zm0,5.094a7.48,7.48,0,0,0-.706-2.368A3.561,3.561,0,0,0,56,19.083h0a3.561,3.561,0,0,0,.706.643A7.48,7.48,0,0,0,56,22.094Zm.1,2.038,1.044.92-.072.817-.743-.347-.275-1.365a.16.16,0,0,1-.114,0l-.275,1.365-.743.347-.072-.817,1.044-.92a.17.17,0,0,1-.062-.1l-1.314.443-.672-.471.672-.47,1.313.442a.17.17,0,0,1,.056-.1l-1.037-.913.072-.817.743.347.272,1.352a.166.166,0,0,1,.12,0l.272-1.352.743-.347.072.817-1.037.913a.17.17,0,0,1,.056.1l1.313-.442.672.47-.672.471-1.314-.443A.17.17,0,0,1,56.1,24.132Z" fill="#fff"/></g><g id="fc0e28b7-1ab7-42c8-9eb9-3326b44e8449" data-name="Dendro"><path d="M91.956,25.292c-1.242-.339-2.145.509-3.174,1.065.5-.835,1.613-1.371,1.588-2.466a1.121,1.121,0,0,0-1.329-1.168c.741-1.765,3.98.033,2.174,1.957C91.518,24.821,91.839,24.933,91.956,25.292Zm-7.919,0c1.242-.339,2.144.509,3.173,1.065-.5-.835-1.613-1.371-1.587-2.466a1.12,1.12,0,0,1,1.329-1.168c-.742-1.765-3.98.033-2.174,1.957C84.474,24.821,84.153,24.933,84.037,25.292ZM88,28.723c-.89-1.565-2.992-1.493-4.011-2.943-2.22-2.548,1.039-6.192,3.509-3.864.88-1.994-3.2-1.85-4.069-.59-.1-.708-.187-1.217-.962-1.3-.163.013-1.112-.206-1.015.059.37,1.112.5,1.669,1.824,1.4a4.168,4.168,0,0,0-.731,3.139c-.72-.593-.909-.347-1.545.186,1.239,1.223,1.412-.3,1.632.133.575,3.258,4.344,2.783,5.368,5.721,1.023-2.936,4.794-2.465,5.368-5.721.22-.429.393,1.09,1.632-.133-.636-.533-.825-.779-1.545-.186a4.168,4.168,0,0,0-.731-3.139c1.328.272,1.454-.285,1.824-1.4.1-.265-.852-.046-1.015-.059-.775.087-.859.6-.962,1.3-.864-1.259-4.95-1.4-4.07.591,2.468-2.328,5.734,1.317,3.509,3.864-1.018,1.45-3.12,1.378-4.01,2.943m.007-11.38c-1.021,1.347-1.832,2.309-.014,3.6C89.792,19.654,89.083,18.828,88.007,17.343Z" fill="#fff"/></g><g id="af1760ea-9b41-4e89-acf1-635c5e61a9e4" data-name="Electro"><path d="M21.533,62.507a6.911,6.911,0,0,0,3.024-.468c-.237-.073-.459-.134-.675-.209s-.432-.159-.643-.252A3.907,3.907,0,0,1,21,59.335a3.449,3.449,0,0,1-.128-1.82c.117.139.222.277.341.4a1.042,1.042,0,0,0,1.01.321,1.571,1.571,0,0,0,1.27-1.356,2.422,2.422,0,0,0-2.083-2.8A2.993,2.993,0,0,0,18.2,56.233a7.083,7.083,0,0,0-.328,2.186c0,.309,0,.618,0,.9a7.089,7.089,0,0,1-.861-3.732A6.949,6.949,0,0,1,19.691,50.5c-.26.472-.519.917-.752,1.374a3.664,3.664,0,0,0-.412,1.521c.207-.193.385-.361.566-.524a4.657,4.657,0,0,1,2.155-1.159,3.573,3.573,0,0,1,3.075.793l-.442.09A1.213,1.213,0,0,0,23,54.285a2.008,2.008,0,0,0,1.716,1.341,2.575,2.575,0,0,0,2.873-2.561,3.33,3.33,0,0,0-1.1-2.508,7.781,7.781,0,0,0-2.2-1.465c-.052-.024-.1-.051-.181-.089A7,7,0,0,1,31,54.917c-.282-.45-.544-.9-.836-1.328A3.743,3.743,0,0,0,29.055,52.5c.079.371.171.721.226,1.077a4.086,4.086,0,0,1-.792,3.364A3.554,3.554,0,0,1,26.98,57.96a.115.115,0,0,1-.049,0c.062-.2.134-.389.184-.587a1.091,1.091,0,0,0-.525-1.234,1.68,1.68,0,0,0-1.765-.046,2.357,2.357,0,0,0-1.168,2.961,2.745,2.745,0,0,0,2.377,1.878,4.373,4.373,0,0,0,2.462-.495c.465-.215.9-.5,1.344-.759.056-.032.108-.071.18-.119A6.922,6.922,0,0,1,21.533,62.507Z" fill="#fff"/></g><g id="b255acab-48d6-45fc-a6e9-3073f1e7626d" data-name="Geo"><path d="M56.119,55.009c-.5.538-.954,1.041-1.421,1.537a.231.231,0,0,0-.06.286,4.5,4.5,0,0,0,1.354,1.719.183.183,0,0,0,.165-.009c.387-.257.785-.5,1.151-.788a16.2,16.2,0,0,0,2.141-1.993c.181.366.381.7.517,1.063.2.535.356,1.088.536,1.632a.293.293,0,0,1-.062.286,12.277,12.277,0,0,1-1.768,1.985c-.839.755-1.714,1.47-2.574,2.2A1.2,1.2,0,0,1,55.99,63c-.5-.411-1.02-.817-1.518-1.243a29.136,29.136,0,0,1-2.848-2.774,16.724,16.724,0,0,1-2.095-2.846.242.242,0,0,1,0-.279A10.082,10.082,0,0,1,50.874,54.1a25.247,25.247,0,0,0,5.158,8.241,12.357,12.357,0,0,0,2.98-4.617l-.036-.03-2.933,2.463c-.04-.032-.081-.061-.116-.095a13.523,13.523,0,0,1-2.563-3.369.25.25,0,0,1,.051-.356c.5-.442,1-.89,1.5-1.325.226-.194.472-.365.736-.566Zm.227,2.545c.264-.2.51-.372.736-.566.507-.435,1-.883,1.5-1.325a.25.25,0,0,0,.051-.356,13.523,13.523,0,0,0-2.563-3.369c-.035-.034-.076-.063-.116-.095l-2.933,2.463-.036-.03a12.357,12.357,0,0,1,2.98-4.617A25.247,25.247,0,0,1,61.126,57.9a10.082,10.082,0,0,0,1.344-1.758.242.242,0,0,0,0-.279,16.724,16.724,0,0,0-2.095-2.846,29.136,29.136,0,0,0-2.848-2.774c-.5-.426-1.015-.832-1.518-1.243a1.2,1.2,0,0,0-.108.071c-.86.732-1.735,1.447-2.574,2.2a12.277,12.277,0,0,0-1.768,1.985.293.293,0,0,0-.062.286c.18.544.334,1.1.536,1.632.136.361.336.7.517,1.063a16.2,16.2,0,0,1,2.141-1.993c.366-.285.764-.531,1.151-.788a.183.183,0,0,1,.165-.009,4.5,4.5,0,0,1,1.354,1.719.231.231,0,0,1-.06.286c-.467.5-.925,1-1.421,1.537Z" fill="#fff"/></g><g id="ea4ab273-b675-4d2e-be7b-2d9d0d764d03" data-name="Hydro"><path d="M83.922,61.244c.108.056.181.092.253.13a7.943,7.943,0,0,0,3.891.963,3.753,3.753,0,0,0,.486-7.464,3.6,3.6,0,0,0-1.691.132.938.938,0,0,1-.716-1.732,4.3,4.3,0,0,1,1.481-.366,4.861,4.861,0,0,1,2.531,9.21c4.218-1.543,4.723-7.809.812-10.016a5.336,5.336,0,0,0-3.437-.83,5.51,5.51,0,0,0-3.649,1.775,6.606,6.606,0,0,0-.417.524.873.873,0,0,1-.927.337.927.927,0,0,1-.781-.638.881.881,0,0,1,.1-.684,6.172,6.172,0,0,1,1.364-1.721,7.091,7.091,0,0,1,3.914-1.784,6.936,6.936,0,0,1,6.848,3.36c2.683,4.1-.263,9.986-5.094,10.472a6.863,6.863,0,0,1-3.241-.343A4,4,0,0,1,83.922,61.244Zm5.516-.124a2.044,2.044,0,0,1-2.35.064,1.5,1.5,0,0,1-.007-2.613.95.95,0,0,1,1.433.505c.77,2.06,2.637.148,1.424-1.246a2.385,2.385,0,0,0-2.17-.95,2.486,2.486,0,1,0,.784,4.891,2.393,2.393,0,0,0,1.521-1.146C89.862,60.791,89.663,60.976,89.438,61.12Zm-6.228-2.6a.663.663,0,1,0,.663.663A.663.663,0,0,0,83.21,58.52Zm-1.252-3.388a.958.958,0,1,0,.957.958A.958.958,0,0,0,81.958,55.132Z" fill="#fff"/></g><g id="e61a8aad-0a94-453d-b155-ef1f120ebbfb" data-name="Pyro"><path d="M24.113,95c-1.541-1.47-3.479-2.25-5.161-3.477-1.471-1.1-.268-3.047.586-4.163a18.06,18.06,0,0,0,1.754-2.522c-.007,1.6,1.56,2.152,2.78,2.709-2.3-.135-4.264,2.552-2.426,4.373-1.874-.773-2.7-2.455-1.3-4.17a2.113,2.113,0,0,0-.536,3.662c1.333.9,2.865,1.483,4.153,2.461a.2.2,0,0,0,.187.019c1.243-.892,2.61-1.577,3.924-2.349,1.654-.887,1.47-2.773-.154-3.583,1.456,2.82-1.213,4.942-3.9,4.745-2.928-.214-3.084-3.174-.63-2.708a1.392,1.392,0,0,0-.682,1.5c.527,1.5,2.954.974,3.81.031,1.1-1.027.327-3.031-.979-3.6-1.492-.7-4.443-1.527-3.3-3.737.7-1.082,1.512-1.806,1.639-3.191.433.581,1.444,1.719,1.241,2.452-.241.72-1.085.982-1.349,1.71a1.334,1.334,0,0,0,.578,1.824c-1.018-1.09.09-2.409,1.15-2.981a3.3,3.3,0,0,0,1.136,4.056c-.725-1.6-1.347-1.64-.128-3.408a4.575,4.575,0,0,0,1.806,2.766c2.057,1.807,1.9,3.731-.52,5.067A16.7,16.7,0,0,0,24.113,95Zm.542-3.5c3.79-1.423-.955-5.164-2.365-2.006C23.706,88.684,25.648,89.92,24.655,91.5Z" fill="#fff"/></g></g></svg>