<svg xmlns="http://www.w3.org/2000/svg" viewBox="0 0 112 112"><g id="ecae9bd2-f0fe-47c2-a562-f454331a0041" data-name="Grid"><rect x="48" y="16" width="16" height="16" fill="#f0f"/><rect x="16" y="16" width="16" height="16" fill="#f0f"/><rect x="48" y="48" width="16" height="16" fill="#f0f"/><rect x="48" y="80" width="16" height="16" fill="#f0f"/><rect x="80" y="80" width="16" height="16" fill="#f0f"/><rect x="16" y="80" width="16" height="16" fill="#f0f"/><rect x="80" y="48" width="16" height="16" fill="#f0f"/><rect x="16" y="48" width="16" height="16" fill="#f0f"/><rect x="80" y="16" width="16" height="16" fill="#f0f"/></g><g id="b7694c17-422b-4856-ae85-7427894fc0df" data-name="Advanced Stats"><g id="ae6c10b4-0649-4d46-b94b-2928329d49cc" data-name="Crit Rate"><path d="M17,31l3.5-7.764-1.527-4.772L24.255,20.5,31,17l-3.5,7.255,1.527,4.772L24.255,27.5,17,31" fill="#fff"/></g><g id="a7fde900-74b7-467c-812b-25c61b601f5b" data-name="Healing Bonus"><path d="M63,21.765v4.47a.589.589,0,0,1-.588.589H58.824v3.588a.589.589,0,0,1-.589.588h-4.47a.589.589,0,0,1-.589-.588V26.824H49.588A.589.589,0,0,1,49,26.235v-4.47a.589.589,0,0,1,.588-.589h3.588V17.588A.589.589,0,0,1,53.765,17h4.47a.589.589,0,0,1,.589.588v3.588h3.588A.589.589,0,0,1,63,21.765Z" fill="#fff"/></g><g id="a431d880-97b5-4c37-a223-0694424b9cda" data-name="Energy Recharge_stacked"><path d="M83.392,23.656l-1.419-1.484a6.643,6.643,0,0,1,6.386-4.813v1.66A4.98,4.98,0,0,0,83.392,23.656Z" fill="#c6c6c5"/><path d="M95,24a6.642,6.642,0,0,1-13.072,1.661h0L81,26.1l.961-3.937.012.012,1.419,1.484,1.37,1.432-1.23.143a4.981,4.981,0,1,0,4.827-6.212v-1.66A6.641,6.641,0,0,1,95,24Z" fill="#fff"/></g><g id="edd11461-0696-4844-a346-4c90bd4f1c78" data-name="Energy Recharge"><path d="M95,88a6.642,6.642,0,0,1-13.072,1.661h0L81,90.1l.961-3.937.012.012,1.419,1.484,1.37,1.432-1.23.143a4.981,4.981,0,1,0,4.827-6.212v-1.66A6.641,6.641,0,0,1,95,88Zm-11.608-.344-1.419-1.484a6.643,6.643,0,0,1,6.386-4.813v1.66A4.98,4.98,0,0,0,83.392,87.656Z" fill="#fff"/></g><g id="b33f73eb-5d60-4f23-a126-f820230d4597" data-name="CD Reduction_stacked"><path d="M22.333,58.381l-2.347,3.352a7,7,0,0,1-2.63-7.936l4.054.881a2.905,2.905,0,0,0,.923,3.7Z" fill="#c6c6c5"/><path d="M31,56a7,7,0,0,1-11.014,5.733l2.347-3.352A2.907,2.907,0,1,0,24,53.092V49a7,7,0,0,1,7,7" fill="#fff"/></g><g id="e6c2ae56-5bde-4f0f-94bb-626845715d24" data-name="CD Reduction copy"><path d="M63,88a7,7,0,0,1-11.014,5.733l2.347-3.352A2.907,2.907,0,1,0,56,85.092V81a7,7,0,0,1,7,7m-8.667,2.381-2.347,3.352a7,7,0,0,1-2.63-7.936l4.054.881a2.905,2.905,0,0,0,.923,3.7Z" fill="#fff"/></g><g id="afd33d56-ad52-46e7-a348-6cd45d069a10" data-name="Shield Strength"><path d="M62.442,49.726a.292.292,0,0,0-.176-.268C61.858,49.286,60.5,49,56,49s-5.858.286-6.266.458a.292.292,0,0,0-.176.269v7.44a.869.869,0,0,0,.126.453c1.579,2.6,5.346,4.855,6.16,5.339a.292.292,0,0,0,.3,0c.789-.482,4.56-2.688,6.169-5.335a.877.877,0,0,0,.127-.455ZM54.694,59.773,55.74,56l-4-1,5.61-4.762L56.305,54.01l4,1Z" fill="#fff"/></g></g></svg>