<svg xmlns="http://www.w3.org/2000/svg" viewBox="0 0 112 112"><g id="b2a4fbc4-05df-4746-aa25-a8cbac0ae025" data-name="Grid"><rect x="48" y="16" width="16" height="16" fill="#f0f"/><rect x="16" y="16" width="16" height="16" fill="#f0f"/><rect x="48" y="48" width="16" height="16" fill="#f0f"/><rect x="48" y="80" width="16" height="16" fill="#f0f"/><rect x="80" y="80" width="16" height="16" fill="#f0f"/><rect x="16" y="80" width="16" height="16" fill="#f0f"/><rect x="80" y="48" width="16" height="16" fill="#f0f"/><rect x="16" y="48" width="16" height="16" fill="#f0f"/><rect x="80" y="16" width="16" height="16" fill="#f0f"/></g><g id="b84877b1-7a0c-4564-b661-51871200cf85" data-name="Artifacts"><g id="bbcd5277-5c52-4455-8ce5-d074d6592c14" data-name="Flower"><path d="M28.279,22.042a2.554,2.554,0,0,0-1.6.9c1.538-1.753,3.031-5.153.034-5.3-.015-.115-.2-.387-.4-.276A5.942,5.942,0,0,0,24.2,22.079c-.5-2.562-3.123-4.283-4.185-3.973-.207.324-.056.606-.261.793-.18.163-.58-.016-.619.249-.324,1.729.945,3.632,2.758,4.532-1.781-.286-4.729.006-4.894,2.148,0,.939,1.269,1.377,3.191,1.377a3.541,3.541,0,0,0,3.128-1.469c-2.541,2.727-.544,3.278,2.192,1.78,1.073-.621.8-1.4.027-2.295,1.395.853,3.755-.174,3.877-1.72C29.414,22.87,29.142,22.055,28.279,22.042ZM24.521,23.55a.5.5,0,0,1-.441.5l-.1.637-.081-.651a.5.5,0,0,1-.358-.594l-.467-.567.557.377a.5.5,0,0,1,.706-.086l.459-.381-.356.492A.5.5,0,0,1,24.521,23.55ZM31,25.426c-.519.249-.77,1.7-1.586,2.337a3.966,3.966,0,0,1-2.678.5,3.463,3.463,0,0,1-1.881,2.393.041.041,0,0,1-.05-.064,4.294,4.294,0,0,0,1-3.174,1.125,1.125,0,0,0,.152-1.782c.344.065.828,1.348.876,2.125,0,0,1.857-1.178,2.355-1.37a6.666,6.666,0,0,0-2.31,1.242,5.933,5.933,0,0,1,1.269-1.5C28.757,25.608,30.548,25.589,31,25.426Z" fill="#fff"/></g><g id="b7024932-d266-463b-b3ed-41392ad27c62" data-name="Plume"><path d="M61.809,17a4.52,4.52,0,0,0-1,.186,4.469,4.469,0,0,0-1.479.6c-.236.14-.241.324-.312.274a.717.717,0,0,0-.467-.033c-3.429,2.7-3.506,2.858-5.261,5.459-.114.046-.289-.11-.289-.11-.059.546-.215.546-.526,1.168a2.75,2.75,0,0,0-.367,2.036,2.49,2.49,0,0,1-.723-.245l.467.39a2.681,2.681,0,0,1-.934.078l.623.467s-.39.389-.546.389l.519.074A18.034,18.034,0,0,0,50,30.948a.04.04,0,0,0,.043.052l.593-.3a.038.038,0,0,0,.02-.025,5.139,5.139,0,0,1,1.722-2.7l.479.549a1.881,1.881,0,0,1-.155-.779l.856.156c-.389-.39-.35-.56-.35-.56a4.067,4.067,0,0,0,1.6-.034,8.175,8.175,0,0,0,1.7-.865c.084-.04-.146-.082-.066-.124s.329-.1.413-.145a20.31,20.31,0,0,0,2.549-2.026,11.77,11.77,0,0,0,2.367-2.7c.043-.074-.36-.2-.526-.231.177.021.616.121.654.048a6.256,6.256,0,0,0,.86-2.34C62.826,18.245,63.449,16.921,61.809,17Zm-9.261,9.573C54.5,22.372,60.1,18.946,60.1,18.946c1.769-1.385-3.96,2.438-7.553,7.709Z" fill="#fff"/></g><g id="eefbe8e6-623e-4921-a676-126357256386" data-name="Sands"><path d="M92.606,29.708h-.818v-.944c0-3.536-3.274-3.709-3.274-4.915v-.071a.855.855,0,0,1,.392-.72c.868-.56,2.773-1.311,2.877-3.895a.216.216,0,0,0-.215-.225H84.254a.217.217,0,0,0-.216.225c.105,2.584,2.009,3.335,2.877,3.895a.856.856,0,0,1,.393.72v.071c0,1.206-3.274,1.379-3.274,4.915v.944h-.819a.215.215,0,0,0-.215.215v.862a.215.215,0,0,0,.215.215h9.391a.216.216,0,0,0,.216-.215v-.862A.216.216,0,0,0,92.606,29.708Zm-4.695,0h-3.1c0-2.757,2.757-2.154,2.757-3.274V22.988s-1.637-.948-1.637-1.637h3.963c0,.689-1.637,1.637-1.637,1.637v3.446c0,1.12,2.757.517,2.757,3.274Zm4.911-12.493v.862a.216.216,0,0,1-.216.215H83.215A.215.215,0,0,1,83,18.077v-.862A.215.215,0,0,1,83.215,17h9.391A.216.216,0,0,1,92.822,17.215Z" fill="#fff"/></g><g id="b33c80e8-fb06-4b0b-8476-d889b79e91e9" data-name="Goblet"><path d="M26.546,57.705c4.121-2.3,4.121-3.555,4.12-6.894H17.428c0,3.339,0,4.59,4.12,6.894,0,1.75,1.739,1.281,1.739,2.187.076.765-.192,1.207-.567,1.275-1.21.168-3.368.939-3.383,1.765h9.42c-.015-.826-2.173-1.6-3.383-1.765-.374-.068-.644-.509-.567-1.275C24.807,58.986,26.546,59.455,26.546,57.705Zm-2.085-2.914-.348,1.393a.066.066,0,0,1-.066.052.066.066,0,0,1-.066-.052l-.348-1.393a.941.941,0,0,0-.757-.7l-1.245-.207a.068.068,0,0,1,0-.134l1.245-.208a.939.939,0,0,0,.757-.7l.348-1.393a.066.066,0,0,1,.066-.051.067.067,0,0,1,.066.051l.348,1.393a.939.939,0,0,0,.757.7l1.245.208a.068.068,0,0,1,0,.134l-1.245.207A.941.941,0,0,0,24.461,54.791Zm5.881-4.407H17.658A.658.658,0,0,1,17,49.726h0a.658.658,0,0,1,.658-.658H30.342a.658.658,0,0,1,.658.658h0A.658.658,0,0,1,30.342,50.384Z" fill="#fff"/></g><g id="aef46704-5ced-435f-99e6-eb26e062c85a" data-name="Circlet"><path d="M61.793,54.048l.269.269L59.5,56.136l-3.234-3.772.809-.809L56,50.206l-1.078,1.349.809.809L52.5,56.136l-2.559-1.819.269-.269L49,53.171l2.958,7.006L56,61.794l4.042-1.617L63,53.171ZM57.732,58.07l-.892.149a.673.673,0,0,0-.543.5l-.25,1a.049.049,0,0,1-.094,0l-.25-1a.673.673,0,0,0-.543-.5l-.892-.149a.049.049,0,0,1,0-.1l.892-.149a.673.673,0,0,0,.543-.5l.25-1a.048.048,0,0,1,.094,0l.25,1a.673.673,0,0,0,.543.5l.892.149A.049.049,0,0,1,57.732,58.07Z" fill="#fff"/></g></g></svg>