<svg xmlns="http://www.w3.org/2000/svg" viewBox="0 0 112 112"><g id="b7e47dbd-d1ee-4346-932d-2ffaec75e26a" data-name="Grid"><rect x="48" y="16" width="16" height="16" fill="#f0f"/><rect x="16" y="16" width="16" height="16" fill="#f0f"/><rect x="48" y="48" width="16" height="16" fill="#f0f"/><rect x="48" y="80" width="16" height="16" fill="#f0f"/><rect x="80" y="80" width="16" height="16" fill="#f0f"/><rect x="16" y="80" width="16" height="16" fill="#f0f"/><rect x="80" y="48" width="16" height="16" fill="#f0f"/><rect x="16" y="48" width="16" height="16" fill="#f0f"/><rect x="80" y="16" width="16" height="16" fill="#f0f"/></g><g id="ad414c8c-c952-4c85-8a24-66b672ad5f75" data-name="DMG Bonus"><g id="f761a47f-607c-4398-8d68-3f05159ff404" data-name="Physical DMG Bonus"><path d="M28.511,24.9l-2.489,1.66v1.77l2.489-1.66L31,28.329v-1.77Zm0,2.434-2.489,1.66v1.771l2.489-1.66L31,30.764V28.993ZM24.45,18.638l-.731.731a.228.228,0,0,0,0,.322l.837.837-7.144,7.143a.458.458,0,0,0-.133.318,21.292,21.292,0,0,0-.239,2.952,21.435,21.435,0,0,0,2.952-.239.458.458,0,0,0,.318-.133l7.143-7.144c1.116,1.012.725,1.313,1.89.106a.228.228,0,0,0,0-.322L27.7,21.568l1.926-1.926c1.89.06,1.215.263,1.335-2.395a.228.228,0,0,0-.228-.228H28.542a.228.228,0,0,0-.228.219l.025,1.116L26.413,20.28l-1.641-1.642A.228.228,0,0,0,24.45,18.638Z" fill="#fff"/></g></g></svg>