<svg xmlns="http://www.w3.org/2000/svg" viewBox="0 0 112 112"><g id="f01a9695-05d0-478c-9459-bb764c65102b" data-name="Grid"><rect x="48" y="16" width="16" height="16" fill="#f0f"/><rect x="16" y="16" width="16" height="16" fill="#f0f"/><rect x="48" y="48" width="16" height="16" fill="#f0f"/><rect x="48" y="80" width="16" height="16" fill="#f0f"/><rect x="80" y="80" width="16" height="16" fill="#f0f"/><rect x="16" y="80" width="16" height="16" fill="#f0f"/><rect x="80" y="48" width="16" height="16" fill="#f0f"/><rect x="16" y="48" width="16" height="16" fill="#f0f"/><rect x="80" y="16" width="16" height="16" fill="#f0f"/></g><g id="be53e420-f18d-41ab-abf9-61f7ac2465e0" data-name="Base Stats"><g id="b57e1da2-71cf-4668-adeb-7f5f6813b86d" data-name="Max HP_stacked"><path d="M20.5,24.654a.978.978,0,0,1,.451-.571c1.511-.85,3.586,2.117,6.544.548C29.419,30.714,18.6,30.878,20.5,24.654ZM24,31c-3.375,0-6.75-2.421-5.136-7.26a18.543,18.543,0,0,1,4.7-6.527.544.544,0,0,1,.862,0,18.543,18.543,0,0,1,4.7,6.527C30.75,28.579,27.375,31,24,31Zm.221-12.19A.649.649,0,0,0,24,18.735h0a.649.649,0,0,0-.221.075c-1.71,1.324-4.08,5.282-3.941,7.405A4.019,4.019,0,0,0,24,29.758h0a4.019,4.019,0,0,0,4.162-3.543C28.3,24.092,25.931,20.134,24.221,18.81Z" fill="#fff"/><path d="M24.982,25.03a12.566,12.566,0,0,1,1.573-1.509c.57-.413.94,1.11.94,1.11A3.731,3.731,0,0,1,24.982,25.03Z" fill="#c6c6c5"/></g><g id="a1e15ec3-495b-4270-a153-f3ee21b1839a" data-name="Max HP"><path d="M84.5,88.654a.978.978,0,0,1,.451-.571c1.511-.85,3.586,2.117,6.544.548C93.419,94.714,82.6,94.878,84.5,88.654ZM88,95c-3.375,0-6.75-2.421-5.136-7.26a18.543,18.543,0,0,1,4.7-6.527.544.544,0,0,1,.862,0,18.543,18.543,0,0,1,4.7,6.527C94.75,92.579,91.375,95,88,95Zm.221-12.19A.649.649,0,0,0,88,82.735h0a.649.649,0,0,0-.221.075c-1.71,1.324-4.08,5.282-3.941,7.405A4.019,4.019,0,0,0,88,93.758h0a4.019,4.019,0,0,0,4.162-3.543C92.3,88.092,89.931,84.134,88.221,82.81Zm.761,6.22a12.566,12.566,0,0,1,1.573-1.509c.57-.413.94,1.11.94,1.11A3.731,3.731,0,0,1,88.982,89.03Z" fill="#fff"/></g><g id="b2a2ce8b-86b4-40c8-8eb7-c3ccf560d58b" data-name="ATK"><path d="M56.78,18.633l1.643,1.643,1.928-1.928-.025-1.117a.228.228,0,0,1,.228-.219h2.2a.228.228,0,0,1,.228.228c-.121,2.661.556,2.457-1.337,2.4l-1.928,1.928,1.644,1.644a.228.228,0,0,1,0,.322c-1.167,1.207-.775.907-1.892-.107l-7.151,7.152a.457.457,0,0,1-.318.133,21.32,21.32,0,0,1-2.954.239,21.16,21.16,0,0,1,.238-2.954.456.456,0,0,1,.134-.319l7.151-7.151-.838-.838a.228.228,0,0,1,0-.322l.732-.731A.228.228,0,0,1,56.78,18.633Z" fill="#fff"/></g><g id="b0f84540-77bc-4d2a-be3c-ee5d3521474f" data-name="DEF"><path d="M94.442,17.726a.292.292,0,0,0-.176-.268C93.858,17.286,92.5,17,88,17s-5.858.286-6.266.458a.292.292,0,0,0-.176.269v7.44a.869.869,0,0,0,.126.453c1.579,2.6,5.346,4.855,6.16,5.339a.292.292,0,0,0,.3,0c.789-.482,4.56-2.688,6.169-5.335a.877.877,0,0,0,.127-.455ZM88,28.968c.057.013-3.559-2.017-4.824-4.364V18.565s0-.452,4.824-.452Z" fill="#fff"/></g><g id="afc6217c-7671-4c7c-9fec-d4c8a4ef7a9c" data-name="Elemental Mastery"><path d="M25.076,57.153l-.017-.049A4.33,4.33,0,0,0,24.3,55.8a4.445,4.445,0,0,0-.325-.347A2.113,2.113,0,1,0,22.162,54.4a4.374,4.374,0,0,0-1.2-.168,4.42,4.42,0,0,0-.755.066l-.038.008c-1.333-5.549,7.53-6.981,7.793-.972A3.984,3.984,0,0,1,25.076,57.153Zm3.662-2.137a3.949,3.949,0,0,0-.626-.235,4.466,4.466,0,0,1-1.1,1.7h.031a2.114,2.114,0,1,1-2.113,2.113,4.072,4.072,0,0,0-.026-.444,3.968,3.968,0,0,0-1.862-2.932l-.19-.11a3.949,3.949,0,0,0-2.571-.415,3.906,3.906,0,0,0-.6.156,3.962,3.962,0,1,0,3.82,6.794c.082-.068.16-.139.236-.214l-.032-.037a4.363,4.363,0,0,1-.891-1.764,2.132,2.132,0,0,1-.232.333A2.113,2.113,0,1,1,20.5,56.533a2.168,2.168,0,0,1,.466-.052,2.1,2.1,0,0,1,.964.233,1.979,1.979,0,0,1,.189.11,2.115,2.115,0,0,1,.942,1.491,2.143,2.143,0,0,1,.018.279,3.963,3.963,0,1,0,5.663-3.578Z" fill="#fff"/></g><g id="b0f3bcfd-c501-491e-a3d6-6040624d1dd9" data-name="Max Stamina"><path d="M62.924,57.359c-.152.206-1.292.3-1.292.3l-2.862.1v1.615c0,.982-1.387,1.8-2.77,1.8s-2.77-.82-2.77-1.8V57.766l-2.862-.1s-1.14-.1-1.292-.3c-.239-.323.145-1.525.331-2.155.326-.865,1.284-3.21,1.885-3.118,1.115.169-.673,3.894.1,3.814a21.118,21.118,0,0,1,4.6-.08,21.118,21.118,0,0,1,4.6.08c.777.08-1.011-3.645.1-3.814.6-.092,1.559,2.253,1.885,3.118C62.779,55.834,63.163,57.036,62.924,57.359Zm-9.371-4.121a2.456,2.456,0,0,0,4.911,0A2.456,2.456,0,0,0,53.553,53.238Z" fill="#fff"/></g></g></svg>