<svg xmlns="http://www.w3.org/2000/svg" viewBox="0 0 14 13.962"><g id="b3b70a70-955a-4cd4-877a-2417d8a6fe54" data-name="Layer 2"><g id="af7c5634-4cae-4962-a12e-2f9ff7b96a50" data-name="DMG Bonus"><g id="f13be569-d638-4e4e-972e-8bc88c5b5790" data-name="Physical DMG Bonus"><path d="M11.511,7.88,9.022,9.54v1.77l2.489-1.66L14,11.31V9.54Zm0,2.434-2.489,1.66v1.771l2.489-1.66L14,13.745V11.974ZM7.45,1.619l-.731.731a.228.228,0,0,0,0,.322l.837.837L.412,10.652a.458.458,0,0,0-.133.318A21.292,21.292,0,0,0,.04,13.922a21.435,21.435,0,0,0,2.952-.239.458.458,0,0,0,.318-.133l7.143-7.144c1.116,1.012.725,1.313,1.89.106a.228.228,0,0,0,0-.322L10.7,4.549l1.926-1.926c1.89.06,1.215.263,1.335-2.395A.228.228,0,0,0,13.734,0H11.542a.228.228,0,0,0-.228.219l.025,1.116L9.413,3.261,7.772,1.619A.228.228,0,0,0,7.45,1.619Z" fill="#fff"/></g></g></g></svg>