<svg xmlns="http://www.w3.org/2000/svg" viewBox="0 0 256 253.38"><defs><style>.anemo-element{fill:#99cdcd;}</style></defs><g id="anemo-element-svg"><path id="outer-bottom-left" class="anemo-element" d="M3.65,88.4c14,22,33.15,45.24,61.48,44.49,18.75-1.21,43.41,4.11,49,24.86C119.85,173.57,99,194,86.45,178.3c-2-3.41-.71-5.44,3.16-6,18.3.38,24.65-20.49,7.36-27.67-14.87-1.84-28.31,9.64-42.59,12.92C14.46,169.09-9.58,121.71,3.65,88.4Z"/><path id="outer-bottom-right" class="anemo-element" d="M252.48,88.62c10.67,28.57-3.35,67.33-36.37,70.56-15.35,1.25-29.11-6.93-42.84-12.56-25-12.67-36,25.65-6.32,25.64,7.87,1.22.4,11.43-5.37,11.2-10.79,1.34-19.77-6.55-20.11-18-1.35-22.36,24.12-34,43.43-32.66C216.72,136.15,236.58,112.49,252.48,88.62Z"/><path id="outer-top-right" class="anemo-element" d="M169.8.34C217.44,15.75,224.48,78.8,181.36,103c-12.49,7.77-26.54,12.27-40.71,15.73C175.54,91.61,193.25,40.62,169.8.34Z"/><path id="outer-top-left" class="anemo-element" d="M115.47,119.27C98.15,113.68,80.41,108.41,66,96.68,30.69,68.23,45.06,13,86.56,0c-23.42,40.08-6.51,92.48,29.53,118.44Z"/><path id="inner" class="anemo-element" d="M225.76,37.18c-12.21,89.21-73.58,65.65-97.74,114.49-24.44-49.47-85.28-24.8-97.5-114.47-21.2,33.52-14.69,77.38,28.6,86.18,9.36,2.18,19,3.3,28.34,5.51,19.13,4.1,40.75,21,36.24,42.73-2,10.91-17.47,24.55-28.44,18.21-3.88-3.08-8.22-2.84-13.27,0,21.27,16.82,34.53,39,46.14,63.59,11.29-25,25.06-46.78,46-63.66-5.93-2.75-9.11-2.85-13.18.21-4.16,3.52-8.33,1.65-12.6-.25-23.06-9-19.31-38.35-1.28-50.61,19.32-15.63,45.86-10.26,66.76-22.26C245,101.6,240.59,63.06,225.76,37.18ZM128.13,229.64l-10.6-17.77,10.44-7,10.48,6.89Zm18.73-29.23c-4.6,3-11.32,1.31-19.12-4.67-4.94,5.41-11.07,6.89-18.11,5,8.12-3,14.67-7.73,18.31-16.66C131.79,192.77,138.3,197.78,146.86,200.41Z"/></g></svg>