<svg xmlns="http://www.w3.org/2000/svg" viewBox="0 0 221.01 256"><defs><style>.cryo-element{fill:#99cdcd;}</style></defs><g id="cryo-element-svg"><path id="outer-300-deg" class="cryo-element" d="M0,64.37s25.9,36.24,34.94,59.9c0,0,2.18-8.67,2.34-11.42,0,0,30.05-5.35,63.29,9.58-29.55-21.32-39.94-50-39.94-50,2.29-1.51,8.72-7.74,8.72-7.74C44.34,68.68,0,64.37,0,64.37Zm80.67,46.57c-16-8.54-44-10.48-44-10.48C37,95,33,83.41,33,83.41h0S45,81.14,49.61,78.11C49.61,78.11,65.26,101.34,80.67,110.94Z"/><path id="outer-240-deg" class="cryo-element" d="M0,191.63s25.9-36.24,34.94-59.9c0,0,2.18,8.67,2.34,11.42,0,0,30.05,5.35,63.29-9.58-29.55,21.32-39.94,50-39.94,50,2.29,1.51,8.72,7.74,8.72,7.74C44.34,187.32,0,191.63,0,191.63Zm80.67-46.57c-16,8.54-44,10.48-44,10.48C37,161,33,172.59,33,172.59h0s12.05,2.27,16.63,5.3C49.61,177.89,65.26,154.66,80.67,145.06Z"/><path id="outer-180-deg" class="cryo-element" d="M110.5,256s-18.43-40.55-34.41-60.22c0,0,8.61,2.46,11.06,3.69,0,0,19.67-23.35,23.35-59.6,3.69,36.25,23.35,59.6,23.35,59.6,2.46-1.23,11.06-3.69,11.06-3.69C128.94,215.45,110.5,256,110.5,256Zm0-93.14c-.61,18.14-12.9,43.3-12.9,43.3,4.92,2.46,12.9,11.76,12.9,11.76h0s8-9.3,12.91-11.76C123.41,206.16,111.12,181,110.5,162.86Z"/><path id="outer-120-deg" class="cryo-element" d="M221,191.63s-25.91-36.24-34.95-59.9c0,0-2.17,8.67-2.33,11.42,0,0-30.06,5.35-63.3-9.58,29.56,21.32,39.95,50,39.95,50-2.3,1.51-8.73,7.74-8.73,7.74C176.67,187.32,221,191.63,221,191.63Zm-80.67-46.57c16,8.54,44,10.48,44,10.48C184,161,188,172.59,188,172.59h0s-12.05,2.27-16.63,5.3C171.4,177.89,155.75,154.66,140.34,145.06Z"/><path id="outer-60-deg" class="cryo-element" d="M221,64.37s-25.91,36.24-34.95,59.9c0,0-2.17-8.67-2.33-11.42,0,0-30.06-5.35-63.3,9.58,29.56-21.32,39.95-50,39.95-50-2.3-1.51-8.73-7.74-8.73-7.74C176.67,68.68,221,64.37,221,64.37Zm-80.67,46.57c16-8.54,44-10.48,44-10.48-.33-5.49,3.73-17,3.73-17h0S176,81.14,171.4,78.11C171.4,78.11,155.75,101.34,140.34,110.94Z"/><path id="outer-0-deg" class="cryo-element" d="M110.5,0S92.07,40.55,76.09,60.22c0,0,8.61-2.46,11.06-3.69,0,0,19.67,23.35,23.35,59.6,3.69-36.25,23.35-59.6,23.35-59.6,2.46,1.23,11.06,3.69,11.06,3.69C128.94,40.55,110.5,0,110.5,0Zm0,93.14c-.61-18.14-12.9-43.3-12.9-43.3,4.92-2.46,12.9-11.76,12.9-11.76h0s8,9.3,12.91,11.76C123.41,49.84,111.12,75,110.5,93.14Z"/><path id="inner" class="cryo-element" d="M113.51,128.62l24,8.1,12.29-8.6-12.29-8.61-24,8.1a3,3,0,0,0-1-1.91l19-16.7-1.3-14.94-13.6,6.34-5,24.74a3,3,0,0,0-2.19,0l-5-24.74-13.6-6.34L89.54,109l18.95,16.7a3,3,0,0,0-1,1.91l-24-8.1-12.29,8.61,12.29,8.6,24-8.1a3.09,3.09,0,0,0,1.14,1.8L89.54,147.23l1.3,14.94,13.6-6.34,5-25a3,3,0,0,0,2.1,0l5,25,13.6,6.34,1.3-14.94-19.09-16.81A3,3,0,0,0,113.51,128.62Z"/></g></svg>