<svg xmlns="http://www.w3.org/2000/svg" viewBox="0 0 256 243.83"><defs><style>.dendro-element{fill:#66b32e;}</style></defs><g id="dendro-element-svg"><path id="inner-right" class="dendro-element" d="M200.34,145.72c-22.71-6.19-39.22,9.32-58,19.48,9.15-15.26,29.49-25.07,29-45.08-.59-15.15-9.75-22.07-24.3-21.38,13.56-32.27,72.78.62,39.76,35.8C192.33,137.11,198.2,139.15,200.34,145.72Z"/><path id="inner-left" class="dendro-element" d="M55.53,145.72c22.71-6.19,39.22,9.32,58,19.48-9.16-15.26-29.49-25.07-29-45.08.6-15.15,9.75-22.07,24.3-21.38-13.55-32.27-72.77.62-39.75,35.8C63.53,137.11,57.66,139.15,55.53,145.72Z"/><path id="outer-center" class="dendro-element" d="M128,208.46c-16.28-28.61-54.7-27.29-73.34-53.82-19.18-23.34-18.42-64.2,10.6-79.23,15.11-7.63,38.85-7.83,49.07,7.85,1.26,2.1,2.74,1.9,4.5.73C136.38,68.3,97.19,52.3,84.35,55.18c-15.41.41-27.83,9.28-39.94,18C42.53,60.25,41,51,26.83,49.35c-3,.24-20.34-3.75-18.57,1.08C15,70.78,17.33,81,41.62,76,29.41,93.2,25.18,112.05,28.24,133.38,15.09,122.55,11.62,127,0,136.78c22.65,22.37,25.82-5.4,29.85,2.44C40.36,198.8,109.27,190.11,128,243.83h0c18.7-53.69,87.67-45.07,98.15-104.61,4-7.84,7.2,19.93,29.85-2.44-11.62-9.74-15.09-14.23-28.24-3.4,3.06-21.33-1.17-40.18-13.38-57.39,24.29,5,26.59-5.21,33.36-25.56,1.77-4.83-15.59-.84-18.57-1.08C215,51,213.47,60.25,211.59,73.2c-12.11-8.74-24.53-17.61-39.94-18-12.84-2.88-52,13.12-34.48,28.81,1.76,1.17,3.24,1.37,4.5-.73,10.22-15.68,34-15.48,49.07-7.85,29,15,29.78,55.89,10.6,79.23-18.64,26.53-57.06,25.22-73.34,53.82"/><path id="outer-top" class="dendro-element" d="M128.13.38V0c0,.06-.09.12-.13.19s-.09-.13-.13-.19V.38c-19.63,27.28-32.6,41.67,0,65.74h.26C160.73,42,147.76,27.67,128.13.38Z"/></g></svg>