<svg xmlns="http://www.w3.org/2000/svg" viewBox="0 0 256 255.93"><defs><style>.cls-1{fill:#9a6699;}</style></defs><g id="Layer_2" data-name="Layer 2"><g id="Electro"><path class="cls-1" d="M82.89,247c18.67-.54,37.53.32,55.29-8.56-4.33-1.33-8.38-2.44-12.34-3.83s-7.9-2.9-11.75-4.59c-18.94-8.36-33.54-21.16-40.88-41-4-10.76-4.3-21.89-2.34-33.27,2.15,2.54,4.07,5.06,6.25,7.34a19.06,19.06,0,0,0,18.45,5.87c13.74-2.69,20.43-12.1,23.23-24.81,6-27.23-17.69-49-38.08-51.19C54,90,31.07,105.38,22,132.23c-4.39,13-5.78,26.38-6,40-.09,5.66,0,11.31,0,16.39C7.41,180.19-1.49,140.78.21,120.34,4,75.12,26.48,44.41,49.2,27.4,44.46,36,39.72,44.15,35.46,52.52a66.8,66.8,0,0,0-7.54,27.81c3.8-3.52,7-6.6,10.36-9.58,11.41-10.27,24.25-18,39.4-21.2,21-4.48,39.36,1.3,56.23,14.51l-8.1,1.64c-16.84,3.42-20.26,19.38-16,30.91,5.32,14.55,16.58,22.4,31.38,24.52,31.78,4.54,52-22.88,52.53-46.84.42-18.5-7.43-33.22-20.12-45.85C161.92,16.86,148,8.64,133.29,1.65c-1-.45-1.9-.93-3.31-1.63,58.92-1.16,117.5,45.2,126,108.14-5.15-8.24-9.95-16.44-15.29-24.28A67.88,67.88,0,0,0,220.43,64c1.44,6.78,3.13,13.17,4.14,19.67,3.48,22.42.22,43.4-14.48,61.52-7.26,8.94-17.06,14.39-27.61,18.59a2.24,2.24,0,0,1-.89-.05c1.15-3.61,2.46-7.11,3.36-10.72,2.48-9.88-1.74-17.14-9.58-22.57-10.49-7.26-21.48-5.8-32.28-.84-19.72,9.05-29.13,32.62-21.36,54.15,7.33,20.28,22.23,31.38,43.47,34.33,16.08,2.25,30.82-2.52,45-9.06,8.51-3.92,16.41-9.18,24.57-13.87,1-.58,2-1.3,3.3-2.18C212.27,242.23,141.35,271.8,82.89,247Z"/></g></g></svg>