<svg xmlns="http://www.w3.org/2000/svg" viewBox="0 0 13.029 14"><g id="ad33afc3-135b-4fd4-8e22-5c8b89d9906e" data-name="Layer 2"><g id="b035ee49-cb40-4eee-bc55-d3fe42c2667c" data-name="Elements"><g id="abc13f42-f912-4f64-bd7d-64eb3da7bf9e" data-name="Geo"><path d="M6.633,6.009c-.5.538-.953,1.041-1.42,1.537a.23.23,0,0,0-.061.286A4.5,4.5,0,0,0,6.507,9.551a.181.181,0,0,0,.164-.009c.388-.257.785-.5,1.151-.788A16.081,16.081,0,0,0,9.963,6.761c.181.366.382.7.518,1.063.2.535.356,1.088.535,1.632a.293.293,0,0,1-.061.286,12.277,12.277,0,0,1-1.768,1.985c-.839.755-1.714,1.47-2.574,2.2A1.2,1.2,0,0,1,6.505,14c-.5-.411-1.02-.817-1.519-1.243A29.249,29.249,0,0,1,2.138,9.983,16.778,16.778,0,0,1,.043,7.137a.245.245,0,0,1,0-.279A10.138,10.138,0,0,1,1.389,5.1a25.247,25.247,0,0,0,5.158,8.241,12.37,12.37,0,0,0,2.98-4.617l-.036-.03L6.558,11.157c-.04-.032-.081-.061-.117-.1A13.544,13.544,0,0,1,3.879,7.693a.249.249,0,0,1,.051-.356c.5-.442,1-.89,1.5-1.325.226-.194.473-.365.736-.566Zm.228,2.545c.263-.2.51-.372.736-.566.506-.435,1-.883,1.5-1.325a.251.251,0,0,0,.051-.356A13.523,13.523,0,0,0,6.588,2.938c-.036-.034-.077-.063-.116-.1L3.539,5.306,3.5,5.276A12.345,12.345,0,0,1,6.483.659,25.245,25.245,0,0,1,11.64,8.9a10.138,10.138,0,0,0,1.345-1.758.244.244,0,0,0,0-.279,16.724,16.724,0,0,0-2.1-2.846A29.136,29.136,0,0,0,8.043,1.243C7.545.817,7.028.411,6.524,0c-.05.033-.082.049-.108.071-.86.732-1.734,1.447-2.573,2.2A12.23,12.23,0,0,0,2.075,4.258a.293.293,0,0,0-.062.286c.179.544.334,1.1.536,1.632.136.361.336.7.517,1.063A16.2,16.2,0,0,1,5.207,5.246c.366-.285.764-.531,1.151-.788a.181.181,0,0,1,.164-.009A4.5,4.5,0,0,1,7.877,6.168a.231.231,0,0,1-.06.286c-.468.5-.926,1-1.421,1.537Z" fill="#fff"/></g></g></g></svg>