<svg xmlns="http://www.w3.org/2000/svg" viewBox="0 0 14 13.996"><g id="fb1f46c8-b977-4d9e-9076-e7b5579e8c64" data-name="Layer 2"><g id="a5169da5-e4a0-4c84-aa54-23fd625c0edc" data-name="Elements"><g id="e68c1866-13fd-456d-ba35-65444d78827b" data-name="Electro"><path d="M4.533,13.505a6.911,6.911,0,0,0,3.024-.468c-.237-.073-.459-.134-.675-.209s-.432-.159-.643-.252A3.907,3.907,0,0,1,4,10.333a3.449,3.449,0,0,1-.128-1.82c.117.139.222.277.341.4a1.044,1.044,0,0,0,1.01.32A1.571,1.571,0,0,0,6.5,7.879a2.422,2.422,0,0,0-2.083-2.8A2.993,2.993,0,0,0,1.2,7.231,7.083,7.083,0,0,0,.874,9.417c-.005.309,0,.618,0,.9A7.089,7.089,0,0,1,.012,6.581,6.949,6.949,0,0,1,2.691,1.5c-.26.472-.519.917-.752,1.374a3.664,3.664,0,0,0-.412,1.521c.207-.193.385-.361.566-.524A4.657,4.657,0,0,1,4.248,2.71,3.573,3.573,0,0,1,7.323,3.5l-.442.09A1.213,1.213,0,0,0,6,5.283,2.008,2.008,0,0,0,7.719,6.624a2.575,2.575,0,0,0,2.873-2.561,3.33,3.33,0,0,0-1.1-2.508A7.781,7.781,0,0,0,7.289.09C7.237.066,7.185.039,7.108,0A7,7,0,0,1,14,5.915c-.282-.45-.544-.9-.836-1.328A3.743,3.743,0,0,0,12.055,3.5c.079.371.171.721.226,1.077a4.086,4.086,0,0,1-.792,3.364A3.554,3.554,0,0,1,9.98,8.958a.115.115,0,0,1-.049,0c.062-.2.134-.389.184-.587A1.091,1.091,0,0,0,9.59,7.135a1.68,1.68,0,0,0-1.765-.046A2.357,2.357,0,0,0,6.657,10.05a2.745,2.745,0,0,0,2.377,1.878,4.373,4.373,0,0,0,2.462-.5c.465-.215.9-.5,1.344-.759.056-.032.108-.071.18-.119A6.922,6.922,0,0,1,4.533,13.505Z" fill="#fff"/></g></g></g></svg>