<svg xmlns="http://www.w3.org/2000/svg" viewBox="0 0 14 13.314"><g id="a3b63d88-c0af-43cc-9592-b9d6b25e8f6b" data-name="Layer 2"><g id="b5c14601-5d06-461f-a7ac-7e81037471c6" data-name="Elements"><g id="b45fc9b6-6e83-4fcb-8979-4bd4d5d3e0da" data-name="Dendro"><path d="M10.956,7.949c-1.242-.339-2.145.509-3.174,1.065.5-.835,1.613-1.371,1.588-2.466A1.122,1.122,0,0,0,8.041,5.379c.741-1.764,3.98.034,2.174,1.958C10.518,7.478,10.839,7.589,10.956,7.949Zm-7.919,0c1.242-.339,2.144.509,3.173,1.065-.5-.835-1.613-1.371-1.587-2.466A1.121,1.121,0,0,1,5.952,5.379c-.742-1.764-3.98.034-2.174,1.958C3.474,7.478,3.153,7.589,3.037,7.949ZM7,11.38C6.11,9.815,4.008,9.887,2.989,8.436.769,5.889,4.028,2.245,6.5,4.573c.88-1.994-3.2-1.85-4.069-.59-.1-.709-.187-1.217-.962-1.305C1.3,2.692.355,2.473.452,2.737c.37,1.113.5,1.67,1.824,1.4a4.167,4.167,0,0,0-.731,3.139C.825,6.681.636,6.927,0,7.46c1.239,1.223,1.412-.3,1.632.133C2.207,10.851,5.976,10.376,7,13.314c1.023-2.936,4.794-2.465,5.368-5.721.22-.429.393,1.09,1.632-.133-.636-.533-.825-.779-1.545-.186a4.167,4.167,0,0,0-.731-3.139c1.328.272,1.454-.285,1.824-1.4.1-.264-.852-.045-1.015-.059-.775.088-.859.6-.962,1.3-.864-1.26-4.95-1.4-4.07.591C9.969,2.245,13.235,5.89,11.01,8.437,9.992,9.887,7.89,9.815,7,11.38M7.007,0C5.986,1.347,5.175,2.309,6.993,3.6,8.792,2.311,8.083,1.485,7.007,0Z" fill="#fff"/></g></g></g></svg>