<svg xmlns="http://www.w3.org/2000/svg" viewBox="0 0 12.086 14"><g id="fe2860c6-76aa-4069-a7e6-78813d1777f4" data-name="Layer 2"><g id="ac30c436-2641-45d2-aadc-21bb0491d156" data-name="Elements"><g id="b703f8e9-2afc-433f-b236-e583d0ba03bb" data-name="Cryo"><path d="M0,3.52A19.776,19.776,0,0,1,1.911,6.8a6.152,6.152,0,0,0,.128-.624A6.476,6.476,0,0,1,5.5,6.7,6.479,6.479,0,0,1,3.316,3.96a6.308,6.308,0,0,0,.477-.423A19.8,19.8,0,0,1,0,3.52ZM4.411,6.067a7.469,7.469,0,0,0-2.4-.573,3.548,3.548,0,0,0-.2-.933h0a3.559,3.559,0,0,0,.909-.289A7.478,7.478,0,0,0,4.411,6.067ZM0,10.48A19.776,19.776,0,0,0,1.911,7.2a6.152,6.152,0,0,1,.128.624A6.476,6.476,0,0,0,5.5,7.3,6.479,6.479,0,0,0,3.316,10.04a6.308,6.308,0,0,1,.477.423A19.8,19.8,0,0,0,0,10.48ZM4.411,7.933a7.469,7.469,0,0,1-2.4.573,3.548,3.548,0,0,1-.2.933h0a3.559,3.559,0,0,1,.909.289A7.478,7.478,0,0,1,4.411,7.933ZM6.043,14a19.768,19.768,0,0,0-1.882-3.293,6.161,6.161,0,0,1,.605.2A6.467,6.467,0,0,0,6.043,7.649,6.478,6.478,0,0,0,7.32,10.908a6.251,6.251,0,0,1,.6-.2A19.768,19.768,0,0,0,6.043,14Zm0-5.094a7.461,7.461,0,0,1-.7,2.368,3.577,3.577,0,0,1,.705.643h0a3.561,3.561,0,0,1,.706-.643A7.48,7.48,0,0,1,6.043,8.906Zm6.043,1.574A19.85,19.85,0,0,1,10.175,7.2a6.215,6.215,0,0,0-.127.624A6.479,6.479,0,0,1,6.586,7.3,6.486,6.486,0,0,1,8.771,10.04a6.112,6.112,0,0,0-.477.423A19.783,19.783,0,0,1,12.086,10.48ZM7.675,7.933a7.473,7.473,0,0,0,2.4.573,3.548,3.548,0,0,0,.2.933h0a3.562,3.562,0,0,0-.91.289A7.478,7.478,0,0,0,7.675,7.933ZM12.086,3.52A19.85,19.85,0,0,0,10.175,6.8a6.215,6.215,0,0,1-.127-.624A6.479,6.479,0,0,0,6.586,6.7,6.486,6.486,0,0,0,8.771,3.96a6.112,6.112,0,0,1-.477-.423A19.783,19.783,0,0,0,12.086,3.52ZM7.675,6.067a7.473,7.473,0,0,1,2.4-.573,3.548,3.548,0,0,1,.2-.933h0a3.562,3.562,0,0,1-.91-.289A7.478,7.478,0,0,1,7.675,6.067ZM6.043,0A19.768,19.768,0,0,1,4.161,3.293a6.161,6.161,0,0,0,.605-.2A6.467,6.467,0,0,1,6.043,6.351,6.478,6.478,0,0,1,7.32,3.092a6.251,6.251,0,0,0,.6.2A19.768,19.768,0,0,1,6.043,0Zm0,5.094a7.461,7.461,0,0,0-.7-2.368,3.577,3.577,0,0,0,.705-.643h0a3.561,3.561,0,0,0,.706.643A7.48,7.48,0,0,0,6.043,5.094Zm.1,2.038,1.044.92-.071.817-.744-.347L6.1,7.157a.163.163,0,0,1-.115,0L5.711,8.522l-.743.347L4.9,8.052l1.044-.92a.165.165,0,0,1-.062-.1l-1.314.443-.672-.471.672-.47,1.312.442a.17.17,0,0,1,.056-.1L4.9,5.961l.071-.817.743.347.272,1.352a.166.166,0,0,1,.12,0l.272-1.352.744-.347.071.817-1.037.913a.165.165,0,0,1,.056.1l1.313-.442.672.47-.672.471L6.208,7.034A.165.165,0,0,1,6.146,7.132Z" fill="#fff"/></g></g></g></svg>