<svg xmlns="http://www.w3.org/2000/svg" viewBox="0 0 14 13.95"><g id="aca62753-40b3-4342-a7ee-b09055e0ac8f" data-name="Layer 2"><g id="b1b59f35-7321-40a1-8b91-df13a0de40a1" data-name="Elements"><g id="baf48ff5-61e4-48be-8ee0-05d2bb162f3c" data-name="Hydro"><path d="M2.922,12.219c.108.055.181.092.253.13a7.943,7.943,0,0,0,3.891.963,3.753,3.753,0,0,0,.486-7.464,3.6,3.6,0,0,0-1.691.132.938.938,0,0,1-.716-1.732,4.3,4.3,0,0,1,1.481-.366,4.912,4.912,0,0,1,5.048,3.446,4.933,4.933,0,0,1-2.517,5.764c4.218-1.543,4.723-7.809.812-10.017a5.342,5.342,0,0,0-3.437-.829A5.506,5.506,0,0,0,2.883,4.021a6.606,6.606,0,0,0-.417.524.873.873,0,0,1-.927.337.929.929,0,0,1-.781-.638.881.881,0,0,1,.1-.684A6.158,6.158,0,0,1,2.221,1.839,7.091,7.091,0,0,1,6.135.055a6.933,6.933,0,0,1,6.848,3.359c2.683,4.1-.263,9.987-5.094,10.472a6.838,6.838,0,0,1-3.241-.343A3.994,3.994,0,0,1,2.922,12.219ZM8.438,12.1a2.044,2.044,0,0,1-2.35.064,1.5,1.5,0,0,1-.007-2.613.949.949,0,0,1,1.433.505c.77,2.06,2.637.147,1.424-1.246a2.385,2.385,0,0,0-2.17-.95,2.486,2.486,0,1,0,.784,4.891A2.393,2.393,0,0,0,9.073,11.6C8.862,11.766,8.663,11.951,8.438,12.1ZM2.21,9.495a.663.663,0,1,0,.663.663A.663.663,0,0,0,2.21,9.495ZM.958,6.107a.958.958,0,1,0,.957.957A.958.958,0,0,0,.958,6.107Z" fill="#fff"/></g></g></g></svg>