<svg xmlns="http://www.w3.org/2000/svg" viewBox="0 0 11.479 14"><g id="e6229a34-eb42-472e-a7ec-3d59ca539ebe" data-name="Layer 2"><g id="a1424b57-781d-436d-b592-afb7bbc902a4" data-name="Elements"><g id="ea4a7863-6beb-44d0-bd1b-85d5981d74a5" data-name="Pyro"><path d="M5.853,14C4.311,12.53,2.374,11.75.692,10.523c-1.471-1.1-.268-3.047.586-4.163A17.969,17.969,0,0,0,3.031,3.838c-.007,1.6,1.56,2.152,2.781,2.709C3.509,6.412,1.548,9.1,3.385,10.92c-1.873-.773-2.7-2.455-1.3-4.17a2.113,2.113,0,0,0-.535,3.662c1.332.9,2.865,1.483,4.153,2.461a.2.2,0,0,0,.187.019C7.13,12,8.5,11.315,9.811,10.543c1.654-.887,1.47-2.773-.154-3.583,1.455,2.82-1.213,4.942-3.9,4.745C2.832,11.491,2.676,8.531,5.131,9a1.39,1.39,0,0,0-.682,1.5c.526,1.495,2.954.974,3.81.031,1.095-1.027.327-3.031-.979-3.6-1.492-.7-4.443-1.527-3.3-3.737C4.676,2.109,5.49,1.385,5.617,0,6.05.581,7.06,1.719,6.857,2.452c-.24.72-1.085.982-1.348,1.71a1.334,1.334,0,0,0,.578,1.824c-1.018-1.09.09-2.409,1.15-2.981A3.3,3.3,0,0,0,8.373,7.061c-.725-1.6-1.347-1.64-.128-3.408a4.575,4.575,0,0,0,1.806,2.766c2.057,1.807,1.9,3.731-.521,5.067A16.689,16.689,0,0,0,5.853,14Zm.541-3.5C10.185,9.076,5.44,5.335,4.03,8.493,5.446,7.684,7.387,8.92,6.394,10.5Z" fill="#fff"/></g></g></g></svg>