<svg xmlns="http://www.w3.org/2000/svg" viewBox="0 0 14 13.857"><g id="bb78dea4-93c4-4ee1-aa56-dab699523de1" data-name="Layer 2"><g id="a282dd6a-736a-4628-a573-e433f59aa349" data-name="Elements"><g id="b39a00df-9117-4d2b-b241-c6e92e7afe14" data-name="Ameno"><path d="M.2,4.834c.764,1.2,1.813,2.475,3.362,2.434,1.025-.067,2.374.224,2.679,1.359.313.865-.825,1.982-1.513,1.124-.108-.187-.039-.3.173-.326,1,.021,1.348-1.12.4-1.513-.813-.1-1.548.527-2.329.707C.791,9.247-.524,6.656.2,4.834Zm9.912,2.429c-1.056-.074-2.449.563-2.375,1.786a.973.973,0,0,0,1.1.984c.316.013.724-.546.294-.612-1.621,0-1.022-2.1.346-1.4a5.222,5.222,0,0,0,2.343.687c1.8-.177,2.572-2.3,1.989-3.859C12.938,6.152,11.852,7.446,10.112,7.263Zm-2.42-.772A7.516,7.516,0,0,0,9.918,5.63,3.067,3.067,0,0,0,9.286.018,5.143,5.143,0,0,1,7.692,6.491ZM6.349,6.477A5.071,5.071,0,0,1,4.734,0,3.075,3.075,0,0,0,3.612,5.287a7.944,7.944,0,0,0,2.7,1.235Zm5.342-.089c-1.143.656-2.594.363-3.651,1.217a1.557,1.557,0,0,0,.07,2.768c.234.1.462.206.689.014.223-.167.4-.162.721-.012a9.094,9.094,0,0,0-2.513,3.482,9.217,9.217,0,0,0-2.523-3.478.605.605,0,0,1,.726,0c.6.347,1.443-.4,1.555-1C7.012,8.2,5.829,7.273,4.783,7.049c-.512-.121-1.038-.182-1.55-.3C.866,6.266.51,3.868,1.669,2.034c.668,4.9,4,3.555,5.332,6.26,1.321-2.671,4.678-1.382,5.345-6.261C13.157,3.449,13.4,5.556,11.691,6.388Zm-4.12,5.191L7,11.2l-.572.385.58.972ZM7,10.066a1.592,1.592,0,0,1-1,.911.925.925,0,0,0,.991-.272c.426.327.794.417,1.046.255A1.561,1.561,0,0,1,7,10.066Z" fill="#fff"/></g></g></g></svg>