<svg xmlns="http://www.w3.org/2000/svg" viewBox="0 0 238.25 256"><defs><style>.geo-element{fill:#ffcc03;}</style></defs><g id="geo-element-svg"><path id="bottom" class="geo-element" d="M121.29,109.87c-9.05,9.84-17.43,19-26,28.11-1.62,1.71-2,3.07-1.1,5.23C99.56,156,108.48,166,119,174.64a3.27,3.27,0,0,0,3-.15c7.09-4.71,14.35-9.2,21-14.43a294.61,294.61,0,0,0,39.14-36.43c3.32,6.69,7,12.84,9.47,19.44,3.69,9.79,6.51,19.9,9.79,29.85.68,2.06.06,3.56-1.13,5.22A223.71,223.71,0,0,1,168,214.44c-15.35,13.81-31.34,26.88-47.07,40.26a20.33,20.33,0,0,1-2,1.3c-9.21-7.52-18.66-14.93-27.77-22.73A533,533,0,0,1,39.1,182.54c-14.37-16.16-27.6-33.17-38.31-52a4.45,4.45,0,0,1,0-5.09c6.8-11.61,15.17-22,24.59-32.16C45.07,150.81,80.33,198.32,119.71,244c22.18-25.77,45.14-50.7,54.49-84.42l-.66-.56-53.63,45c-.72-.58-1.48-1.1-2.13-1.73a247.21,247.21,0,0,1-46.85-61.6c-1.49-2.77-1.22-4.61.93-6.51,9.14-8.1,18.22-16.28,27.47-24.24,4.14-3.55,8.65-6.66,13.46-10.34Z"/><path id="top" class="geo-element" d="M117,146.13c9.05-9.84,17.43-19,26-28.11,1.62-1.71,2-3.07,1.1-5.23C138.69,100,129.78,90,119.26,81.36a3.27,3.27,0,0,0-3,.15c-7.08,4.71-14.35,9.2-21.05,14.43a294.61,294.61,0,0,0-39.14,36.43c-3.31-6.69-7-12.84-9.47-19.44-3.69-9.79-6.51-19.9-9.79-29.85-.68-2.06-.06-3.56,1.13-5.22a223.77,223.77,0,0,1,32.33-36.3C85.61,27.75,101.6,14.68,117.33,1.3a20.33,20.33,0,0,1,2-1.3c9.21,7.52,18.66,14.93,27.77,22.73a531.86,531.86,0,0,1,52.08,50.73c14.37,16.16,27.6,33.17,38.31,52a4.45,4.45,0,0,1,0,5.09c-6.79,11.61-15.17,22-24.59,32.16-19.66-57.56-54.93-105.07-94.31-150.7C96.37,37.82,73.4,62.75,64.05,96.47l.66.56,53.63-45c.72.58,1.48,1.1,2.13,1.73a247.49,247.49,0,0,1,46.86,61.6c1.48,2.77,1.22,4.61-.94,6.51-9.14,8.1-18.21,16.28-27.47,24.24-4.13,3.55-8.64,6.66-13.46,10.34Z"/></g></svg>