<svg xmlns="http://www.w3.org/2000/svg" viewBox="0 0 209.91 256"><defs><style>.cls-1{fill:#f39669;}</style></defs><g id="Layer_2" data-name="Layer 2"><g id="Pyro"><path class="cls-1" d="M107,256c-28.18-26.87-63.62-41.14-94.37-63.58-26.9-20.16-4.9-55.72,10.72-76.12C34.4,100.88,47,87.42,55.43,70.19c-.12,29.27,28.52,39.35,50.85,49.53-42.11-2.47-78,46.67-44.37,80-34.27-14.14-49.42-44.88-23.83-76.26-26.09,11.49-36.63,49.08-9.8,67,24.37,16.53,52.4,27.12,76,45a3.76,3.76,0,0,0,3.42.34c22.73-16.31,47.72-28.83,71.75-43,30.24-16.22,26.88-50.72-2.82-65.53,26.62,51.57-22.18,90.38-71.24,86.78-53.55-3.92-56.4-58-11.51-49.53-9.16,6.75-15.54,15.78-12.48,27.35,9.63,27.35,54,17.82,69.67.57,20-18.78,6-55.42-17.9-65.74-27.28-12.85-81.25-27.93-60.38-68.33,12.76-19.8,27.65-33,30-58.36,7.92,10.63,26.4,31.43,22.68,44.83C121,58,105.55,62.79,100.74,76.1c-6.23,12.63-2.29,25.78,10.56,33.35-18.62-19.93,1.65-44,21-54.5-11.38,28.41-3.57,55.63,20.78,74.16-13.25-29.18-24.62-30-2.33-62.31,4.32,21.43,16.15,37.48,33,50.57,37.62,33,34.76,68.23-9.51,92.66C150.44,223.42,126.7,236.62,107,256Z"/><path class="cls-1" d="M73.69,155.3C99.47,97.56,186.24,166,116.93,192,135.08,163.12,99.59,140.5,73.69,155.3Z"/></g></g></svg>