<svg xmlns="http://www.w3.org/2000/svg" viewBox="0 0 14 14"><g id="e17e2026-863b-4176-93b9-eecb6e260d62" data-name="Layer 2"><g id="ac040fc6-dc4d-40ed-8d25-1b58ce703f6e" data-name="Advanced Stats"><g id="b46a5d5c-3c45-4f08-b1ed-8de3a082b9f1" data-name="Healing Bonus"><path d="M14,4.765v4.47a.589.589,0,0,1-.588.589H9.824v3.588A.589.589,0,0,1,9.235,14H4.765a.589.589,0,0,1-.589-.588V9.824H.588A.589.589,0,0,1,0,9.235V4.765a.589.589,0,0,1,.588-.589H4.176V.588A.589.589,0,0,1,4.765,0h4.47a.589.589,0,0,1,.589.588V4.176h3.588A.589.589,0,0,1,14,4.765Z" fill="#fff"/></g></g></g></svg>